<svg xmlns="http://www.w3.org/2000/svg" width="434.22" height="478.43" viewBox="0 0 434.22 478.43"><defs><style>.cls-1{fill:#56524c;}.cls-2{fill:#bc9f84;}.cls-3{fill:#e0c9b5;}.cls-4{fill:#b78862;}.cls-5{fill:#d3b496;}.cls-6{fill:#755d42;}.cls-7{fill:#755441;}.cls-8{fill:#6a5030;}.cls-9{fill:#815f42;}.cls-10{fill:#d3b49c;}.cls-11{fill:#e5ceba;}.cls-12{fill:#e0c3a9;}.cls-13{fill:#e0c4aa;}.cls-14{fill:#966f55;}.cls-15{fill:#d3b59c;}.cls-16{fill:#9a6f45;}.cls-17{fill:#745c46;}.cls-18{fill:#ceb49b;}.cls-19{fill:#baa090;}.cls-20{fill:#ae9683;}.cls-21{fill:#8e5e3b;}.cls-22{fill:#b08350;}.cls-23{fill:#dbb08d;}.cls-24{fill:#b78b63;}.cls-25{fill:#b48e65;}.cls-26{fill:#c19f76;}.cls-27{fill:#c4a074;}.cls-28{fill:#9b7257;}.cls-29{fill:#895e46;}.cls-30{fill:#f7d9b0;}.cls-31{fill:#dbb393;}.cls-32{fill:#906942;}.cls-33{fill:#a7794b;}.cls-34{fill:#906741;}.cls-35{fill:#7d5d37;}.cls-36{fill:#b29066;}.cls-37{fill:#e0c1a1;}.cls-38{fill:#cdb697;}.cls-39{fill:#ba906a;}.cls-40{fill:#bba38d;}.cls-41{fill:#613d1a;}.cls-42{fill:#a57f63;}.cls-43{fill:#c69b7b;}.cls-44{fill:#aa7b53;}.cls-45{fill:#9b7359;}.cls-46{fill:#a08670;}</style></defs><g id="Layer_4" data-name="Layer 4"><circle class="cls-1" cx="217.11" cy="261.33" r="217.11"/></g><g id="Layer_3" data-name="Layer 3"><polygon class="cls-2" points="206.91 423.39 201.24 389.37 220.29 420.03 249.63 432.28 220.29 432.52 206.91 423.39"/><polygon class="cls-2" points="206.91 423.39 201.24 389.37 220.29 420.03 249.63 432.28 220.29 432.52 206.91 423.39"/><polygon class="cls-3" points="74 424.68 52.03 386.83 56.1 339.87 24.27 361.15 44.52 393.06 44.51 393.06 24.27 361.15 56.1 339.87 52.03 386.83 74 424.68"/><polyline class="cls-3" points="44.52 393.06 24.27 361.15 56.1 339.87 52.03 386.83 74 424.68"/><polygon class="cls-3" points="63.67 414.92 57.24 408.22 50.47 400.5 44.52 393.06 39.51 386.34 34.26 378.43 29.07 369.88 24.27 361.15 56.1 339.87 52.03 386.83 74 424.68 63.67 414.92"/><polygon class="cls-3" points="74 424.68 52.03 386.83 56.1 339.87 24.27 361.15 29.07 369.88 34.26 378.43 39.51 386.34 44.52 393.06 50.47 400.5 57.24 408.22 63.67 414.92 74 424.68"/><polygon class="cls-4" points="346.63 409.15 364.52 368.44 371.51 381.25 378.68 406.36 373.56 411.86 366.63 418.74 359.78 424.98 351.79 431.62 346.63 409.15"/><polygon class="cls-4" points="346.63 409.15 364.52 368.44 371.5 381.25 378.68 406.36 373.56 411.86 366.63 418.74 359.78 424.98 351.8 431.62 346.63 409.15"/><polygon class="cls-5" points="257.66 364.31 274.85 285.88 283.55 298.34 309.23 318.91 334.23 328.28 352.98 347.03 364.74 368.6 346.85 409.31 351.8 431.62 346.15 435.94 339.8 440.47 331.59 445.84 321.53 451.72 310.22 457.51 257.66 364.31"/><polygon class="cls-5" points="257.66 364.31 274.85 285.88 283.55 298.34 309.23 318.91 334.23 328.28 352.98 347.03 364.74 368.6 346.85 409.31 351.8 431.62 346.15 435.94 339.8 440.47 331.59 445.83 321.53 451.72 310.22 457.51 257.66 364.31"/><polygon class="cls-6" points="371.5 381.25 352.75 346.88 334 328.13 309 318.75 283.33 298.19 274.63 285.72 314.65 297.72 367.66 304.31 392.66 333.69 414.96 350.86 411.26 358.61 406.86 366.87 403.16 373.29 397.33 382.43 390.07 392.54 383.78 400.45 378.68 406.36 371.5 381.25"/><polygon class="cls-6" points="383.78 400.45 378.68 406.36 371.5 381.25 352.75 346.88 334 328.13 309 318.75 283.33 298.19 274.63 285.72 314.65 297.72 367.66 304.31 392.66 333.69 414.96 350.86 411.25 358.61 406.86 366.87 403.16 373.29 397.33 382.43 390.07 392.54 383.78 400.45"/><polygon class="cls-7" points="277.99 274.25 272.25 266.14 287.13 271.61 290.92 278.47 277.99 274.25"/><polygon class="cls-7" points="277.99 274.25 272.25 266.14 287.13 271.61 290.92 278.47 277.99 274.25"/><polygon class="cls-7" points="277.99 274.25 272.25 266.14 287.13 271.61 290.92 278.47 277.99 274.25"/><polygon class="cls-7" points="290.91 278.47 287.13 271.61 272.25 266.14 277.99 274.25 290.91 278.47"/><polygon class="cls-8" points="264.14 244.38 279.57 245.5 288.54 253.13 277.2 254.7 264.14 244.38"/><polygon class="cls-8" points="264.14 244.38 279.57 245.5 288.54 253.13 277.2 254.69 264.14 244.38"/><polygon class="cls-8" points="264.14 244.38 279.57 245.5 288.54 253.13 277.2 254.69 264.14 244.38"/><polygon class="cls-8" points="288.54 253.13 277.2 254.69 264.14 244.38 279.57 245.5 288.54 253.13"/><polygon class="cls-9" points="259 212.5 259 206.25 287.13 224.66 287.13 231.26 259 212.5"/><polygon class="cls-9" points="259 212.5 259 206.25 287.13 224.67 287.13 231.25 259 212.5"/><polygon class="cls-9" points="259 212.5 259 206.25 287.13 224.67 287.13 231.25 259 212.5"/><polygon class="cls-9" points="287.13 231.25 287.13 224.67 259 206.25 259 212.5 287.13 231.25"/><polygon class="cls-10" points="392.65 333.69 367.66 304.32 314.65 297.72 274.63 285.72 277.99 274.25 290.91 278.47 287.13 271.61 272.25 266.14 277.2 254.69 288.54 253.13 279.57 245.5 264.14 244.38 268.38 231.25 287.13 231.25 287.13 224.67 259 206.25 265.25 196.88 277.75 196.88 355.88 237.5 374.63 278.13 424.56 325.48 422.95 330.55 420.63 337.09 418.04 344.14 414.96 350.86 392.65 333.69"/><polygon class="cls-10" points="424.56 325.48 374.63 278.13 355.88 237.5 277.75 196.88 265.25 196.88 259 206.25 287.13 224.67 287.13 231.25 268.38 231.25 264.14 244.38 279.57 245.5 288.54 253.13 277.2 254.69 272.25 266.14 287.13 271.61 290.91 278.47 277.99 274.25 274.63 285.72 314.65 297.72 367.66 304.31 392.66 333.69 414.96 350.86 418.03 344.14 420.63 337.09 422.95 330.55 424.56 325.48"/><polygon class="cls-11" points="374.63 278.13 368.44 264.73 410.92 295.61 424.56 325.48 374.63 278.13"/><polygon class="cls-11" points="374.63 278.13 368.44 264.73 410.91 295.61 424.56 325.48 374.63 278.13"/><polygon class="cls-11" points="374.63 278.13 368.44 264.73 410.91 295.61 424.56 325.48 374.63 278.13"/><polygon class="cls-11" points="410.91 295.61 424.56 325.48 374.63 278.13 368.44 264.73 410.91 295.61"/><polygon class="cls-12" points="133.48 232.5 149.63 226.78 180.88 310.94 169.54 314.7 133.48 232.5"/><polygon class="cls-12" points="133.48 232.5 149.63 226.78 180.88 310.94 169.54 314.7 133.48 232.5"/><polygon class="cls-13" points="190.96 309.66 237.13 228.13 190.96 309.66 204.8 309.66 249.63 253.13 249.63 253.13 204.8 309.66 190.96 309.66"/><polyline class="cls-13" points="249.63 253.13 204.8 309.66 190.96 309.66 237.13 228.13"/><polygon class="cls-13" points="190.37 309.76 236.54 228.23 248.46 253.33 204.22 309.76 190.37 309.76"/><polygon class="cls-13" points="190.37 309.76 204.22 309.76 248.46 253.33 236.55 228.23 190.37 309.76"/><polygon class="cls-14" points="178.03 276.49 186.47 261.32 204.01 261.32 206.91 270.69 190.04 292.19 174.28 293.17 178.03 276.49"/><polygon class="cls-14" points="178.03 276.49 186.47 261.32 204.01 261.32 206.91 270.69 190.03 292.19 174.28 293.16 178.03 276.49"/><polygon class="cls-14" points="178.03 276.49 186.47 261.32 204.01 261.32 206.91 270.69 190.03 292.19 174.28 293.16 178.03 276.49"/><polygon class="cls-14" points="174.28 293.16 190.03 292.18 206.91 270.69 204.01 261.33 186.47 261.33 178.03 276.49 174.28 293.16"/><polygon class="cls-15" points="95.99 315.6 121.5 300 130.88 278.13 130.85 249.54 126.59 184.46 139.76 176.48 149.63 193.75 160.36 199.12 160.37 215.63 156.17 244.38 149.63 226.78 134 232.32 150.26 270.79 143.22 298.78 131.35 318.82 95.99 315.6"/><polygon class="cls-15" points="95.99 315.59 121.5 300 130.88 278.13 130.85 249.54 126.59 184.46 139.76 176.48 149.63 193.75 160.36 199.12 160.36 215.63 156.17 244.38 149.63 226.78 134 232.32 150.26 270.79 143.22 298.78 131.35 318.82 95.99 315.59"/><polygon class="cls-16" points="198.58 281.3 206.91 270.69 204.01 261.33 197.09 261.33 205.59 251.7 205.59 229.15 198.24 216.84 218.38 221.88 234 209.38 237.13 228.13 199.39 294.76 198.58 281.3"/><polygon class="cls-16" points="198.58 281.3 206.91 270.69 204.01 261.33 197.09 261.33 205.59 251.7 205.59 229.15 198.24 216.84 218.38 221.88 234 209.38 237.13 228.13 199.39 294.76 198.58 281.3"/><polygon class="cls-16" points="198.58 281.3 206.91 270.69 204.01 261.33 197.09 261.33 205.59 251.7 205.59 229.15 198.24 216.84 218.38 221.88 234 209.38 237.13 228.13 199.39 294.76 198.58 281.3"/><polygon class="cls-16" points="198.24 216.84 205.59 229.15 205.59 251.7 197.09 261.33 204.01 261.33 206.91 270.69 198.58 281.3 199.4 294.75 237.13 228.13 234 209.38 218.38 221.88 198.24 216.84"/><polygon class="cls-17" points="193.38 215.63 149.63 193.75 137.13 171.88 159 162.5 202.76 187.5 230.88 193.75 249.63 190.63 234.01 209.38 218.38 221.88 193.38 215.63"/><polygon class="cls-17" points="193.38 215.63 149.63 193.75 137.13 171.88 159 162.5 202.75 187.5 230.88 193.75 249.63 190.63 234 209.38 218.38 221.88 193.38 215.63"/><polygon class="cls-17" points="193.38 215.63 149.63 193.75 137.13 171.88 159 162.5 202.75 187.5 230.88 193.75 249.63 190.63 234 209.38 218.38 221.88 193.38 215.63"/><polygon class="cls-17" points="160.36 199.12 193.38 215.63 198.24 216.84 218.38 221.88 234 209.38 249.63 190.63 230.88 193.75 202.75 187.5 180.88 175 159 162.5 137.13 171.88 139.76 176.49 149.63 193.75 160.36 199.12"/><polygon class="cls-18" points="205.69 478.34 188.58 476.64 173.88 474.13 156.01 469.72 140.98 464.8 127.14 459 114.52 452.67 100.63 444.76 88.38 436.36 74 424.68 52.03 386.83 56.1 339.87 95.99 315.59 131.35 318.82 143.22 298.77 150.84 270.69 170.12 314.6 180.88 310.94 174.28 293.16 190.03 292.18 199.16 281.2 199.98 294.66 190.96 309.66 204.8 309.65 249.63 253.13 275.21 252.46 277.78 254.59 272.84 266.04 278.57 274.15 275.43 285.78 258.25 364.21 310.22 457.51 298.03 462.85 284.24 467.86 269.79 472 253.49 475.4 238.42 477.4 221.42 478.34 205.69 478.34"/><polygon class="cls-18" points="52.03 386.83 56.1 339.87 95.99 315.59 131.35 318.82 143.22 298.77 150.85 270.69 170.12 314.6 180.88 310.94 174.28 293.16 190.03 292.18 199.16 281.2 199.98 294.66 190.96 309.66 204.8 309.65 249.63 253.13 275.21 252.46 277.78 254.59 272.84 266.04 278.57 274.15 275.43 285.78 258.25 364.21 310.22 457.51 298.03 462.85 284.24 467.86 269.79 472 253.49 475.4 238.42 477.4 221.42 478.33 205.69 478.33 188.58 476.64 173.88 474.13 156.02 469.72 140.98 464.8 127.14 459 114.53 452.67 100.63 444.75 88.38 436.36 74 424.68 52.03 386.83"/><polygon class="cls-19" points="170.98 368.4 190.96 359.3 215.48 356.33 195.9 371.97 170.98 368.4"/><polygon class="cls-19" points="170.98 368.4 190.96 359.3 215.48 356.34 195.9 371.96 170.98 368.4"/><polygon class="cls-19" points="170.98 368.4 190.96 359.3 215.48 356.34 195.9 371.96 170.98 368.4"/><polygon class="cls-19" points="170.98 368.4 195.9 371.96 215.48 356.34 190.96 359.3 170.98 368.4"/><polygon class="cls-20" points="73.86 343.35 89.35 339.32 95.15 336.23 92.78 343.74 80.39 344.54 73.86 343.35"/><polygon class="cls-20" points="73.86 343.35 89.35 339.32 95.15 336.23 92.78 343.74 80.39 344.54 73.86 343.35"/><polygon class="cls-20" points="73.86 343.35 89.35 339.32 95.15 336.23 92.78 343.74 80.39 344.54 73.86 343.35"/><polygon class="cls-20" points="92.78 343.74 80.39 344.54 73.86 343.35 89.35 339.33 95.15 336.23 92.78 343.74"/><polygon class="cls-21" points="90.25 193.75 93.47 184.46 99.63 190.63 109 184.38 118.38 193.75 113.68 203.04 121.5 203.13 127.81 203.17 128.18 209.47 129.01 221.88 90.25 193.75"/><polygon class="cls-21" points="90.25 193.75 93.47 184.46 99.63 190.63 109 184.38 118.38 193.75 113.68 203.04 121.5 203.13 127.81 203.17 128.18 209.47 129 221.88 90.25 193.75"/><polygon class="cls-21" points="90.25 193.75 93.47 184.46 99.63 190.63 109 184.38 118.38 193.75 113.68 203.04 121.5 203.13 127.81 203.17 128.18 209.47 129 221.88 90.25 193.75"/><polygon class="cls-21" points="129 221.88 128.18 209.47 127.81 203.17 121.5 203.13 113.68 203.04 118.38 193.75 109 184.38 99.63 190.63 93.47 184.47 90.25 193.75 129 221.88"/><polygon class="cls-22" points="99.63 165.63 105.88 171.88 93.47 184.47 99.63 165.63"/><polygon class="cls-22" points="99.63 165.63 105.88 171.88 93.47 184.47 99.63 165.63"/><polygon class="cls-22" points="99.63 165.63 105.88 171.88 93.47 184.47 99.63 165.63"/><polygon class="cls-22" points="105.88 171.88 93.47 184.47 99.63 165.63 105.88 171.88"/><polygon class="cls-23" points="77.75 96.88 96.5 93.75 96.51 106.25 74.63 131.26 77.75 96.88"/><polygon class="cls-23" points="77.75 96.88 96.5 93.75 96.5 106.25 74.63 131.25 77.75 96.88"/><polygon class="cls-23" points="77.75 96.88 96.5 93.75 96.5 106.25 74.63 131.25 77.75 96.88"/><polygon class="cls-23" points="74.63 131.25 96.5 106.25 96.5 93.75 77.75 96.88 74.63 131.25"/><polygon class="cls-24" points="87.13 71.88 105.88 68.75 102.76 87.5 96.5 93.75 77.75 96.88 87.13 71.88"/><polygon class="cls-24" points="87.13 71.88 105.88 68.75 102.75 87.5 96.5 93.75 77.75 96.88 87.13 71.88"/><polygon class="cls-24" points="87.13 71.88 105.88 68.75 102.75 87.5 96.5 93.75 77.75 96.88 87.13 71.88"/><polygon class="cls-24" points="87.13 71.88 105.88 68.75 102.75 87.5 96.5 93.75 77.75 96.88 87.13 71.88"/><polygon class="cls-25" points="87.13 62.5 96.5 53.13 96.5 46.88 118.38 31.25 140.25 34.38 152.75 37.5 130.88 53.13 105.88 68.75 87.13 71.88 87.13 62.5"/><polygon class="cls-25" points="87.13 62.5 96.5 53.13 96.5 46.88 118.38 31.25 140.25 34.38 152.75 37.5 130.88 53.13 105.88 68.75 87.13 71.88 87.13 62.5"/><polygon class="cls-25" points="87.13 62.5 96.5 53.13 96.5 46.88 118.38 31.25 140.25 34.38 152.75 37.5 130.88 53.13 105.88 68.75 87.13 71.88 87.13 62.5"/><polygon class="cls-25" points="118.38 31.25 140.25 34.38 152.75 37.5 130.88 53.13 105.88 68.75 87.13 71.88 87.13 62.5 96.5 53.13 96.5 46.88 118.38 31.25"/><polygon class="cls-26" points="105.88 68.75 130.88 53.13 143.38 56.25 140.26 68.75 127.75 81.25 102.75 87.5 105.88 68.75"/><polygon class="cls-26" points="105.88 68.75 130.88 53.13 143.38 56.25 140.25 68.75 127.75 81.25 102.75 87.5 105.88 68.75"/><polygon class="cls-26" points="105.88 68.75 130.88 53.13 143.38 56.25 140.25 68.75 127.75 81.25 102.75 87.5 105.88 68.75"/><polygon class="cls-26" points="143.38 56.25 140.25 68.75 127.75 81.25 102.75 87.5 105.88 68.75 130.88 53.13 143.38 56.25"/><polygon class="cls-2" points="206.91 423.39 201.24 389.37 220.29 420.03 249.63 432.28 220.29 432.52 206.91 423.39"/><polygon class="cls-2" points="220.29 432.52 249.63 432.29 220.29 420.03 201.24 389.37 206.91 423.39 220.29 432.52"/><polygon class="cls-27" points="159 50 152.75 37.5 165.25 34.38 168.38 46.88 177.75 56.25 159 50"/><polygon class="cls-27" points="159 50 152.75 37.5 165.25 34.38 168.38 46.88 177.75 56.25 159 50"/><polygon class="cls-27" points="159 50 152.75 37.5 165.25 34.38 168.38 46.88 177.75 56.25 159 50"/><polygon class="cls-27" points="152.75 37.5 165.25 34.38 168.38 46.88 177.75 56.25 159 50 152.75 37.5"/><polygon class="cls-28" points="193.38 53.13 196.5 43.75 205.88 53.13 193.38 53.13"/><polygon class="cls-28" points="193.38 53.13 196.5 43.75 205.88 53.13 193.38 53.13"/><polygon class="cls-28" points="193.38 53.13 196.5 43.75 205.88 53.13 193.38 53.13"/><polygon class="cls-28" points="193.38 53.13 205.88 53.13 196.5 43.75 193.38 53.13"/><polygon class="cls-28" points="212.13 53.13 227.75 43.75 230.88 50 237.13 50 240.26 53.13 212.13 53.13"/><polygon class="cls-28" points="212.13 53.13 227.75 43.75 230.88 50 237.13 50 240.26 53.13 212.13 53.13"/><polygon class="cls-28" points="212.13 53.13 227.75 43.75 230.88 50 237.13 50 240.26 53.13 212.13 53.13"/><polygon class="cls-28" points="212.13 53.13 227.75 43.75 230.88 50 237.13 50 240.25 53.13 212.13 53.13"/><polygon class="cls-29" points="240.25 53.13 249.63 43.75 259 46.88 243.38 56.25 240.25 53.13"/><polygon class="cls-29" points="240.25 53.13 249.63 43.75 259 46.88 243.38 56.25 240.25 53.13"/><polygon class="cls-29" points="240.25 53.13 249.63 43.75 259 46.88 243.38 56.25 240.25 53.13"/><polygon class="cls-29" points="243.38 56.25 259 46.88 249.63 43.75 240.25 53.13 243.38 56.25"/><polygon class="cls-28" points="255.88 68.75 265.25 59.38 262.13 75.01 255.88 68.75"/><polygon class="cls-28" points="255.88 68.75 265.25 59.38 262.13 75 255.88 68.75"/><polygon class="cls-28" points="255.88 68.75 265.25 59.38 262.13 75 255.88 68.75"/><polygon class="cls-28" points="255.88 68.75 262.13 75 265.25 59.38 255.88 68.75"/><polygon class="cls-30" points="229.32 19.75 213.64 11.57 212.13 6.25 221.5 0 230.88 0 234.01 3.13 246.5 3.13 252.76 9.38 246.51 15.63 237.13 19.75 229.32 19.75"/><polygon class="cls-30" points="229.32 19.75 213.64 11.57 212.13 6.25 221.5 0 230.88 0 234 3.13 246.5 3.13 252.75 9.38 246.5 15.63 237.13 19.75 229.32 19.75"/><polygon class="cls-30" points="229.32 19.75 213.64 11.57 212.13 6.25 221.5 0 230.88 0 234 3.13 246.5 3.13 252.75 9.38 246.5 15.63 237.13 19.75 229.32 19.75"/><polygon class="cls-30" points="212.13 6.25 213.64 11.57 229.32 19.74 237.13 19.74 246.5 15.63 252.75 9.38 246.5 3.13 234 3.13 230.88 0 221.5 0 212.13 6.25"/><polygon class="cls-31" points="262.13 37.5 255.88 39.07 247.92 32.93 244.7 28.13 234 25 221.5 25 209 31.25 193.38 21.88 165.25 34.38 152.75 37.5 140.25 34.38 118.38 31.25 118.38 28.13 140.25 18.75 146.5 18.75 152.75 12.5 165.25 12.5 184 9.38 190.14 3.24 212.13 6.25 213.64 11.57 229.32 19.74 237.13 19.74 246.5 15.63 252.75 9.38 271.51 31.25 268.38 40.63 262.13 37.5"/><polygon class="cls-31" points="262.13 37.5 255.88 39.06 247.92 32.93 244.7 28.13 234 25 221.5 25 209 31.25 193.38 21.88 165.25 34.38 152.75 37.5 140.25 34.38 118.38 31.25 118.38 28.13 140.25 18.75 146.5 18.75 152.75 12.5 165.25 12.5 184 9.38 190.14 3.24 212.13 6.25 213.64 11.57 229.32 19.74 237.13 19.74 246.5 15.63 252.75 9.38 271.5 31.25 268.38 40.63 262.13 37.5"/><polygon class="cls-31" points="262.13 37.5 255.88 39.06 247.92 32.93 244.7 28.13 234 25 221.5 25 209 31.25 193.38 21.88 165.25 34.38 152.75 37.5 140.25 34.38 118.38 31.25 118.38 28.13 140.25 18.75 146.5 18.75 152.75 12.5 165.25 12.5 184 9.38 190.14 3.24 212.13 6.25 213.64 11.57 229.32 19.74 237.13 19.74 246.5 15.63 252.75 9.38 271.5 31.25 268.38 40.63 262.13 37.5"/><polygon class="cls-31" points="118.38 31.25 118.38 28.13 140.25 18.75 146.5 18.75 152.75 12.5 165.25 12.5 184 9.38 190.14 3.24 212.13 6.25 213.64 11.57 229.32 19.74 237.13 19.74 246.5 15.63 252.75 9.38 271.5 31.25 268.38 40.63 262.13 37.5 255.88 39.06 247.92 32.93 244.71 28.13 234 25 221.5 25 209 31.25 193.38 21.88 165.25 34.38 152.75 37.5 140.25 34.38 118.38 31.25"/><polygon class="cls-32" points="121.5 203.13 113.68 203.04 118.38 193.75 109 184.38 99.63 190.63 93.47 184.47 105.88 171.88 99.63 165.63 74.63 131.25 96.5 106.25 96.5 93.75 102.75 87.5 124.63 103.13 112.13 103.13 102.75 112.5 99.63 128.13 105.88 146.88 124.63 153.13 127.81 203.17 121.5 203.13"/><polygon class="cls-32" points="121.5 203.13 113.68 203.04 118.38 193.75 109 184.38 99.63 190.63 93.47 184.47 105.88 171.88 99.63 165.63 74.63 131.25 96.5 106.25 96.5 93.75 102.75 87.5 124.63 103.13 112.13 103.13 102.75 112.5 99.63 128.13 105.88 146.88 124.63 153.13 127.81 203.17 121.5 203.13"/><polygon class="cls-32" points="121.5 203.13 113.68 203.04 118.38 193.75 109 184.38 99.63 190.63 93.47 184.47 105.88 171.88 99.63 165.63 74.63 131.25 96.5 106.25 96.5 93.75 102.75 87.5 124.63 103.13 112.13 103.13 102.75 112.5 99.63 128.13 105.88 146.88 124.63 153.13 127.81 203.17 121.5 203.13"/><polygon class="cls-32" points="74.63 131.25 99.63 165.63 105.88 171.88 93.47 184.47 99.63 190.63 109 184.38 118.38 193.75 113.68 203.04 121.5 203.13 127.81 203.17 124.63 153.13 105.88 146.88 99.63 128.13 102.75 112.5 112.13 103.13 124.63 103.13 102.75 87.5 96.5 93.75 96.5 106.25 74.63 131.25"/><polygon class="cls-33" points="105.88 146.88 99.63 128.13 102.75 112.5 112.13 103.13 124.63 103.13 130.88 109.38 135.18 132.09 134.01 150 124.63 153.13 105.88 146.88"/><polygon class="cls-33" points="105.88 146.88 99.63 128.13 102.75 112.5 112.13 103.13 124.63 103.13 130.88 109.38 135.18 132.09 134 150 124.63 153.13 105.88 146.88"/><polygon class="cls-33" points="105.88 146.88 99.63 128.13 102.75 112.5 112.13 103.13 124.63 103.13 130.88 109.38 135.18 132.09 134 150 124.63 153.13 105.88 146.88"/><polygon class="cls-33" points="130.88 109.38 135.18 132.09 134 150 124.63 153.13 105.88 146.88 99.63 128.13 102.75 112.5 112.13 103.13 124.63 103.13 130.88 109.38"/><polygon class="cls-34" points="112.13 143.75 105.88 134.38 105.88 115.63 115.25 106.25 121.5 106.25 130.88 115.63 133.18 134.38 124.63 143.75 112.13 143.75"/><polygon class="cls-34" points="112.13 143.75 105.88 134.38 105.88 115.63 115.25 106.25 121.5 106.25 130.88 115.63 133.18 134.38 124.63 143.75 112.13 143.75"/><polygon class="cls-34" points="112.13 143.75 105.88 134.38 105.88 115.63 115.25 106.25 121.5 106.25 130.88 115.63 133.18 134.38 124.63 143.75 112.13 143.75"/><polygon class="cls-34" points="121.5 106.25 130.88 115.63 133.18 134.38 124.63 143.75 112.13 143.75 105.88 134.38 105.88 115.63 115.25 106.25 121.5 106.25"/><polygon class="cls-35" points="134 150 135.17 132.09 130.88 109.38 143.38 84.38 159.01 162.5 137.13 171.88 134 150"/><polygon class="cls-35" points="134 150 135.18 132.09 130.88 109.38 143.38 84.38 159 162.5 137.13 171.88 134 150"/><polygon class="cls-35" points="134 150 135.18 132.09 130.88 109.38 143.38 84.38 159 162.5 137.13 171.88 134 150"/><polygon class="cls-35" points="134 150 137.13 171.88 159 162.5 143.38 84.38 130.88 109.38 135.18 132.09 134 150"/><polygon class="cls-36" points="159 162.5 143.38 84.38 168.38 65.63 177.76 90.63 171.51 100 180.88 118.75 187.13 156.25 202.76 187.51 159 162.5"/><polygon class="cls-36" points="159 162.5 143.38 84.38 168.38 65.63 177.75 90.63 171.5 100 180.88 118.75 187.13 156.25 202.76 187.5 159 162.5"/><polygon class="cls-36" points="159 162.5 143.38 84.38 168.38 65.63 177.75 90.63 171.5 100 180.88 118.75 187.13 156.25 202.76 187.5 159 162.5"/><polygon class="cls-36" points="168.38 65.63 143.38 84.38 159 162.5 202.75 187.5 187.13 156.25 180.88 118.75 171.5 100 177.75 90.63 168.38 65.63"/><polygon class="cls-37" points="202.75 187.5 187.13 156.25 180.88 118.75 171.5 100 177.75 90.63 168.38 65.63 193.38 53.13 240.25 53.13 262.13 75 265.26 93.75 265.26 109.38 259.01 115.63 262.13 131.25 262.13 150 249.63 190.63 230.88 193.75 202.75 187.5"/><polygon class="cls-37" points="202.75 187.5 187.13 156.25 180.88 118.75 171.5 100 177.75 90.63 168.38 65.63 193.38 53.13 240.25 53.13 262.13 75 265.25 93.75 265.25 109.38 259 115.63 262.13 131.25 262.13 150 249.63 190.63 230.88 193.75 202.75 187.5"/><polygon class="cls-37" points="202.75 187.5 187.13 156.25 180.88 118.75 171.5 100 177.75 90.63 168.38 65.63 193.38 53.13 240.25 53.13 262.13 75 265.25 93.75 265.25 109.38 259 115.63 262.13 131.25 262.13 150 249.63 190.63 230.88 193.75 202.75 187.5"/><polygon class="cls-37" points="193.38 53.13 240.25 53.13 262.13 75 265.25 93.75 265.25 109.38 259 115.63 262.13 131.25 262.13 150 249.63 190.63 230.88 193.75 202.75 187.5 187.13 156.25 180.88 118.75 171.5 100 177.75 90.63 168.38 65.63 193.38 53.13"/><polygon class="cls-38" points="271.5 59.38 266.51 50.87 268.38 40.63 271.5 31.25 271.51 43.75 277.75 43.75 284.01 59.38 280.88 62.5 271.5 59.38"/><polygon class="cls-38" points="271.5 59.38 266.52 50.87 268.38 40.63 271.5 31.25 271.5 43.75 277.75 43.75 284 59.38 280.88 62.5 271.5 59.38"/><polygon class="cls-38" points="271.5 59.38 266.52 50.87 268.38 40.63 271.5 31.25 271.5 43.75 277.75 43.75 284 59.38 280.88 62.5 271.5 59.38"/><polygon class="cls-38" points="271.5 31.25 268.38 40.63 266.52 50.87 271.5 59.38 280.88 62.5 284 59.38 277.75 43.75 271.5 43.75 271.5 31.25"/><polygon class="cls-39" points="265.25 109.38 265.25 93.75 262.13 75 265.25 59.38 255.88 68.75 243.38 56.25 259 46.88 249.63 43.75 240.26 53.13 237.13 50 243.38 43.75 243.38 37.5 247.92 32.93 255.88 39.06 262.13 37.5 268.38 40.63 266.52 50.87 271.51 59.38 280.88 62.5 287.13 71.88 280.88 81.25 280.88 100 271.5 109.38 265.25 109.38"/><polygon class="cls-39" points="265.25 109.38 265.25 93.75 262.13 75 265.25 59.38 255.88 68.75 243.38 56.25 259 46.88 249.63 43.75 240.25 53.13 237.13 50 243.38 43.75 243.38 37.5 247.92 32.93 255.88 39.06 262.13 37.5 268.38 40.63 266.52 50.87 271.5 59.38 280.88 62.5 287.13 71.88 280.88 81.25 280.88 100 271.5 109.38 265.25 109.38"/><polygon class="cls-39" points="265.25 109.38 265.25 93.75 262.13 75 265.25 59.38 255.88 68.75 243.38 56.25 259 46.88 249.63 43.75 240.25 53.13 237.13 50 243.38 43.75 243.38 37.5 247.92 32.93 255.88 39.06 262.13 37.5 268.38 40.63 266.52 50.87 271.5 59.38 280.88 62.5 287.13 71.88 280.88 81.25 280.88 100 271.5 109.38 265.25 109.38"/><polygon class="cls-39" points="265.25 109.38 271.5 109.38 280.88 100 280.88 81.25 287.13 71.88 280.88 62.5 271.5 59.38 266.52 50.87 268.38 40.63 262.13 37.5 255.88 39.06 247.92 32.93 243.38 37.5 243.38 43.75 237.13 50 240.25 53.13 249.63 43.75 259 46.88 243.38 56.25 255.88 68.75 265.25 59.38 262.13 75 265.25 93.75 265.25 109.38"/><polygon class="cls-40" points="156.16 244.38 160.36 215.63 160.36 199.12 193.38 215.63 198.24 216.84 205.59 229.15 205.59 251.7 197.09 261.33 186.47 261.33 178.04 276.49 174.28 293.17 156.16 244.38"/><polygon class="cls-40" points="156.16 244.38 160.36 215.63 160.36 199.12 193.38 215.63 198.24 216.84 205.59 229.15 205.59 251.7 197.09 261.33 186.47 261.33 178.03 276.49 174.28 293.17 156.16 244.38"/><polygon class="cls-40" points="156.16 244.38 160.36 215.63 160.36 199.12 193.38 215.63 198.24 216.84 205.59 229.15 205.59 251.7 197.09 261.33 186.47 261.33 178.03 276.49 174.28 293.17 156.16 244.38"/><polygon class="cls-40" points="160.36 199.12 193.38 215.63 198.24 216.84 205.59 229.15 205.59 251.7 197.09 261.33 186.47 261.33 178.03 276.49 174.28 293.16 156.17 244.38 160.36 215.63 160.36 199.12"/><polygon class="cls-41" points="124.63 153.13 134 150 137.13 171.88 139.76 176.48 126.59 184.47 124.63 153.13"/><polygon class="cls-41" points="124.63 153.13 134 150 137.13 171.88 139.76 176.49 126.59 184.47 124.63 153.13"/><polygon class="cls-41" points="124.63 153.13 134 150 137.13 171.88 139.76 176.49 126.59 184.47 124.63 153.13"/><polygon class="cls-41" points="124.63 153.13 134 150 137.13 171.88 139.76 176.49 126.59 184.47 124.63 153.13"/><polygon class="cls-42" points="124.63 103.13 102.75 87.5 127.75 81.25 140.25 68.75 143.38 56.25 130.88 53.13 152.75 37.5 159.01 50 177.75 56.25 168.38 46.88 165.25 34.38 174.97 30.06 193.38 53.13 168.38 65.63 143.38 84.38 130.88 109.38 124.63 103.13"/><polygon class="cls-42" points="124.63 103.13 102.75 87.5 127.75 81.25 140.25 68.75 143.38 56.25 130.88 53.13 152.75 37.5 159 50 177.75 56.25 168.38 46.88 165.25 34.38 174.97 30.06 193.38 53.13 168.38 65.63 143.38 84.38 130.88 109.38 124.63 103.13"/><polygon class="cls-42" points="124.63 103.13 102.75 87.5 127.75 81.25 140.25 68.75 143.38 56.25 130.88 53.13 152.75 37.5 159 50 177.75 56.25 168.38 46.88 165.25 34.38 174.97 30.06 193.38 53.13 168.38 65.63 143.38 84.38 130.88 109.38 124.63 103.13"/><polygon class="cls-42" points="130.88 53.13 143.38 56.25 140.25 68.75 127.75 81.25 102.75 87.5 124.63 103.13 130.88 109.38 143.38 84.38 168.38 65.63 193.38 53.13 174.97 30.06 165.25 34.38 168.38 46.88 177.75 56.25 159 50 152.75 37.5 130.88 53.13"/><polygon class="cls-43" points="205.88 53.13 196.5 43.75 193.38 53.13 174.97 30.06 193.38 21.88 209.01 31.25 221.5 25 234 25 244.71 28.13 247.93 32.93 243.38 37.5 237.13 37.5 243.38 43.75 237.13 50 230.88 50 227.75 43.75 212.13 53.13 205.88 53.13"/><polygon class="cls-43" points="205.88 53.13 196.5 43.75 193.38 53.13 174.97 30.06 193.38 21.88 209 31.25 221.5 25 234 25 244.71 28.13 247.92 32.93 243.38 37.5 237.13 37.5 243.38 43.75 237.13 50 230.88 50 227.75 43.75 212.13 53.13 205.88 53.13"/><polygon class="cls-43" points="205.88 53.13 196.5 43.75 193.38 53.13 174.97 30.06 193.38 21.88 209 31.25 221.5 25 234 25 244.71 28.13 247.92 32.93 243.38 37.5 237.13 37.5 243.38 43.75 237.13 50 230.88 50 227.75 43.75 212.13 53.13 205.88 53.13"/><polygon class="cls-43" points="174.97 30.06 193.38 21.88 209 31.25 221.5 25 234 25 244.71 28.13 247.92 32.93 243.38 37.5 237.13 37.5 243.38 43.75 237.13 50 230.88 50 227.75 43.75 212.13 53.13 205.88 53.13 196.5 43.75 193.38 53.13 174.97 30.06"/><polygon class="cls-44" points="237.13 37.5 243.38 37.5 243.38 43.76 237.13 37.5"/><polygon class="cls-44" points="237.13 37.5 243.38 37.5 243.38 43.75 237.13 37.5"/><polygon class="cls-44" points="237.13 37.5 243.38 37.5 243.38 43.75 237.13 37.5"/><polygon class="cls-44" points="243.38 43.75 243.38 37.5 237.13 37.5 243.38 43.75"/><polygon class="cls-45" points="230.88 34.38 224.63 28.13 234 31.25 234 40.63 230.88 34.38"/><polygon class="cls-45" points="230.88 34.38 224.63 28.13 234 31.25 234 40.63 230.88 34.38"/><polygon class="cls-45" points="230.88 34.38 224.63 28.13 234 31.25 234 40.63 230.88 34.38"/><polygon class="cls-45" points="234 40.63 234 31.25 224.63 28.13 230.88 34.38 234 40.63"/><polygon class="cls-46" points="171.5 100 177.75 90.63 198.74 76.18 230.52 81.32 232.76 97.02 222.08 112.05 196.63 112.98 171.5 100"/><polygon class="cls-46" points="171.5 100 177.75 90.63 198.74 76.18 230.52 81.33 232.76 97.02 222.08 112.05 196.63 112.98 171.5 100"/><polygon class="cls-46" points="171.5 100 177.75 90.63 198.74 76.18 230.52 81.33 232.76 97.02 222.08 112.05 196.63 112.98 171.5 100"/><polygon class="cls-46" points="232.76 97.02 222.08 112.05 196.63 112.97 171.5 100 177.75 90.63 198.74 76.18 230.52 81.33 232.76 97.02"/><polygon class="cls-46" points="247.07 117.26 245.88 111.26 241.38 97.68 250.38 85.81 265.25 93.75 265.26 109.38 257.68 116.01 259.01 123.44 247.07 117.26"/><polygon class="cls-46" points="247.07 117.26 245.88 111.26 241.38 97.68 250.38 85.81 265.25 93.75 265.25 109.38 257.68 116.01 259 123.44 247.07 117.26"/><polygon class="cls-46" points="247.07 117.26 245.88 111.26 241.38 97.68 250.38 85.81 265.25 93.75 265.25 109.38 257.68 116.01 259 123.44 247.07 117.26"/><polygon class="cls-46" points="241.38 97.68 245.88 111.26 247.07 117.26 259 123.44 257.68 116.01 265.25 109.38 265.25 93.75 250.38 85.81 241.38 97.68"/><polygon class="cls-46" points="240.41 143.04 234.34 143.75 224.45 143.75 221.81 140.27 230.12 134.2 239.62 132.22 245.88 135.39 250.38 136.18 249.11 143.75 243.57 146.34 240.41 143.04"/><polygon class="cls-46" points="240.41 143.04 234.34 143.75 224.45 143.75 221.81 140.27 230.12 134.2 239.62 132.23 245.88 135.39 250.38 136.18 249.11 143.75 243.57 146.34 240.41 143.04"/><polygon class="cls-46" points="240.41 143.04 234.34 143.75 224.45 143.75 221.81 140.27 230.12 134.2 239.62 132.23 245.88 135.39 250.38 136.18 249.11 143.75 243.57 146.34 240.41 143.04"/><polygon class="cls-46" points="221.81 140.27 224.45 143.75 234.34 143.75 240.41 143.04 243.57 146.34 249.11 143.75 250.38 136.18 245.88 135.39 239.62 132.23 230.12 134.21 221.81 140.27"/><polygon class="cls-46" points="224.43 180.98 214.39 172.03 219.47 171.88 229.08 171.94 237.29 174.15 244.02 174.58 245.88 178.85 242.63 180.83 239.2 182.36 224.43 180.98"/><polygon class="cls-46" points="224.43 180.98 214.39 172.02 219.47 171.88 229.08 171.94 237.29 174.15 244.02 174.58 245.88 178.85 242.62 180.83 239.2 182.36 224.43 180.98"/><polygon class="cls-46" points="224.43 180.98 214.39 172.02 219.47 171.88 229.08 171.94 237.29 174.15 244.02 174.58 245.88 178.85 242.62 180.83 239.2 182.36 224.43 180.98"/><polygon class="cls-46" points="219.47 171.88 229.08 171.94 237.29 174.15 244.02 174.59 245.88 178.85 242.62 180.83 239.2 182.36 224.43 180.98 214.39 172.02 219.47 171.88"/><polygon class="cls-46" points="240.22 163.17 236.96 162.98 233.4 161.29 216.88 163.57 233.2 160.4 237.36 162.09 240.32 162.09 243.39 165.84 243.39 165.84 240.22 163.17"/><polygon class="cls-46" points="240.22 163.17 236.96 162.98 233.4 161.29 216.88 163.57 233.2 160.4 237.36 162.09 240.32 162.09 243.39 165.84 243.39 165.84 240.22 163.17"/><polygon class="cls-46" points="240.22 163.17 236.96 162.98 233.4 161.29 216.88 163.57 233.2 160.4 237.36 162.09 240.32 162.09 243.39 165.84 243.39 165.84 240.22 163.17"/><polygon class="cls-46" points="216.88 163.57 233.4 161.29 236.96 162.97 240.23 163.17 243.39 165.84 240.32 162.09 237.36 162.09 233.2 160.4 216.88 163.57"/></g></svg>